<svg viewBox="0 0 24 24" xml:space="preserve" xmlns="http://www.w3.org/2000/svg" enable-background="new 0 0 24 24"><path d="M19.235 1.75H4.765A3.018 3.018 0 0 0 1.75 4.765v14.471a3.018 3.018 0 0 0 3.015 3.015h14.471a3.018 3.018 0 0 0 3.015-3.015V4.765a3.02 3.02 0 0 0-3.016-3.015zm1.809 17.485c0 .997-.811 1.809-1.809 1.809H4.765a1.811 1.811 0 0 1-1.809-1.809v-2.181l4.866-5.407 6.573 5.975 3.635-3.029 3.015 2.512v2.13zm0-3.699-3.015-2.512-3.601 3L7.737 9.94l-4.781 5.312V4.765c0-.997.811-1.809 1.809-1.809h14.471c.997 0 1.809.811 1.809 1.809v10.771z" fill="#757575" class="fill-000000"></path><path d="M16.221 10.794c1.662 0 3.015-1.352 3.015-3.015s-1.352-3.015-3.015-3.015c-1.662 0-3.015 1.352-3.015 3.015s1.352 3.015 3.015 3.015zm0-4.823c.997 0 1.809.811 1.809 1.809s-.811 1.809-1.809 1.809-1.809-.811-1.809-1.809.811-1.809 1.809-1.809z" fill="#757575" class="fill-000000"></path></svg>